<?xml version="1.0" standalone="no"?>
<!DOCTYPE svg PUBLIC "-//W3C//DTD SVG 20010904//EN"
 "http://www.w3.org/TR/2001/REC-SVG-20010904/DTD/svg10.dtd">
<svg version="1.0" xmlns="http://www.w3.org/2000/svg"
 width="1657.000000pt" height="330.000000pt" viewBox="0 0 1657.000000 330.000000"
 preserveAspectRatio="xMidYMid meet">

<g transform="translate(0.000000,330.000000) scale(0.100000,-0.100000)"
fill="#000000" stroke="none">
<path d="M0 2531 c0 -422 3 -796 7 -831 l6 -62 56 5 c31 3 137 15 236 26 367
41 485 46 1055 46 683 0 764 -6 1470 -106 611 -87 1237 -238 1775 -429 470
-167 588 -217 1034 -438 665 -330 1198 -511 1891 -641 469 -88 657 -101 1020
-67 664 61 1321 211 1947 445 248 92 415 167 733 328 435 220 713 333 1220
496 647 209 1307 345 2070 426 604 65 1497 67 1998 5 l52 -7 0 787 0 786
-8285 0 -8285 0 0 -769z m8786 -662 c-16 -103 -54 -132 -180 -139 l-91 -5 -5
-253 -5 -252 -28 -35 c-26 -33 -75 -55 -124 -55 l-23 0 -2 253 -3 252 -180 5
c-99 3 -186 9 -192 13 -7 5 -13 17 -13 29 0 28 87 163 128 199 l33 29 346 0
346 0 -7 -41z m-1408 -926 c3 -20 -1 -23 -32 -23 l-36 0 0 -111 0 -110 -27 3
-28 3 0 105 c0 100 -1 105 -22 108 -12 2 -27 9 -33 17 -23 27 0 36 88 33 82
-3 87 -4 90 -25z m180 18 c1 -1 2 -10 2 -21 0 -17 -7 -20 -45 -20 -43 0 -45
-1 -45 -30 0 -29 1 -30 50 -30 43 0 50 -3 50 -19 0 -17 -8 -20 -47 -23 -45 -3
-48 -5 -51 -32 -4 -35 10 -46 66 -46 36 0 42 -3 42 -20 0 -20 -5 -21 -82 -18
l-83 3 0 125 c0 72 4 128 10 133 7 5 111 4 133 -2z m200 -18 c3 -21 -1 -23
-37 -23 -39 0 -41 -2 -41 -30 0 -29 1 -30 50 -30 43 0 50 -3 50 -19 0 -17 -8
-20 -47 -23 -48 -3 -48 -3 -48 -38 l0 -35 53 -3 c44 -3 52 -6 52 -23 0 -17 -7
-19 -85 -19 l-85 0 0 129 c0 94 3 131 13 135 6 2 37 4 67 3 49 -2 55 -5 58
-24z m321 -114 c0 -71 -5 -129 -9 -129 -4 0 -14 7 -21 17 -16 19 -145 123
-153 123 -4 0 -6 -24 -6 -54 0 -70 -7 -86 -36 -86 l-25 0 3 123 c2 87 6 122
15 122 7 0 46 -28 87 -62 40 -35 77 -63 80 -63 3 0 6 28 6 63 0 68 10 88 41
80 19 -5 20 -14 18 -134z m365 116 c53 -35 58 -116 11 -165 l-25 -27 20 -18
c11 -10 20 -22 20 -27 0 -16 -57 -8 -75 12 -10 11 -26 20 -37 20 -11 0 -18 -7
-18 -20 0 -15 -7 -20 -25 -20 l-25 0 0 128 c0 71 3 132 8 136 11 13 120 -2
146 -19z m144 -112 l3 -133 -31 0 -30 0 0 128 c0 71 3 132 7 136 4 4 16 6 28
4 19 -3 20 -11 23 -135z m238 121 c50 -24 63 -43 39 -60 -16 -12 -23 -11 -50
6 -41 25 -66 25 -98 0 -52 -41 -43 -120 17 -145 42 -18 77 -8 102 30 10 15 26
25 40 25 27 0 30 -11 12 -43 -44 -85 -156 -101 -217 -31 -36 40 -46 72 -38
121 6 37 47 89 82 103 32 14 74 11 111 -6z m158 10 c12 -4 16 -20 16 -56 l0
-49 63 3 62 3 5 50 5 50 65 0 c58 0 65 -2 65 -20 0 -16 -8 -21 -42 -23 -40 -3
-43 -5 -43 -33 0 -28 1 -29 50 -29 43 0 50 -3 50 -19 0 -17 -8 -20 -47 -23
-48 -3 -48 -3 -48 -38 l0 -35 50 0 c44 0 50 -3 53 -23 3 -21 0 -22 -77 -22
l-80 0 -3 58 -3 57 -62 3 -63 3 0 -61 c0 -61 0 -61 -27 -58 l-28 3 -3 100 c-3
106 3 165 18 165 4 0 15 -3 24 -6z m468 -4 c77 -22 105 -116 53 -179 l-26 -30
21 -21 c27 -27 26 -30 -15 -30 -24 0 -39 6 -47 20 -17 27 -48 26 -48 -1 0 -16
-5 -20 -27 -17 l-28 3 -3 124 c-2 93 1 126 10 133 18 11 66 10 110 -2z"/>
<path d="M8100 1857 c-26 -21 -110 -146 -110 -163 0 -2 84 -3 188 -2 l187 3
42 65 c24 36 55 75 70 87 l28 23 -195 0 c-138 -1 -199 -4 -210 -13z"/>
<path d="M8344 906 c-3 -7 -4 -35 -2 -62 3 -48 4 -49 33 -47 31 2 65 34 65 60
0 39 -83 82 -96 49z"/>
<path d="M9390 860 c0 -69 11 -80 57 -58 39 18 45 78 11 102 -12 9 -33 16 -45
16 -21 0 -23 -4 -23 -60z"/>
</g>
</svg>
