<?xml version="1.0" encoding="UTF-8"?>
<svg xmlns="http://www.w3.org/2000/svg" xmlns:xlink="http://www.w3.org/1999/xlink" width="1425px" height="311px" viewBox="0 0 1425 311" version="1.1">
<g id="surface1">
<path style=" stroke:none;fill-rule:nonzero;fill:rgb(0%,0%,0%);fill-opacity:1;" d="M 0 153.609375 C 0 238.09375 0.535156 307.21875 1.199219 307.21875 C 1.734375 307.21875 4 306.746094 6.132812 306.15625 C 8.265625 305.566406 14.53125 303.910156 20 302.492188 C 52.664062 293.984375 91.195312 280.515625 115.328125 269.054688 C 196.390625 230.652344 301.1875 204.183594 411.980469 194.375 C 434.113281 192.484375 495.84375 190.238281 507.976562 190.832031 C 511.976562 191.066406 525.574219 191.65625 537.976562 192.011719 C 613.839844 194.140625 684.632812 207.726562 744.898438 231.714844 C 794.761719 251.445312 861.828125 266.808594 923.558594 272.480469 C 946.753906 274.605469 1011.285156 276.378906 1019.953125 275.078125 C 1023.285156 274.605469 1034.085938 273.070312 1043.953125 271.769531 C 1123.015625 260.78125 1206.875 233.605469 1270.207031 198.390625 C 1290.339844 187.050781 1320.070312 173.222656 1343.402344 164.363281 C 1350.601562 161.527344 1359.667969 157.980469 1363.269531 156.5625 C 1371.402344 153.375 1407 141.675781 1417.667969 138.722656 L 1425.265625 136.59375 L 1425.265625 0 L 0 0 Z M 0 153.609375 "/>
</g>
</svg>
