<?xml version="1.0" standalone="no"?>
<!DOCTYPE svg PUBLIC "-//W3C//DTD SVG 20010904//EN"
 "http://www.w3.org/TR/2001/REC-SVG-20010904/DTD/svg10.dtd">
<svg version="1.0" xmlns="http://www.w3.org/2000/svg"
 width="1243.000000pt" height="253.000000pt" viewBox="0 0 1243.000000 253.000000"
 preserveAspectRatio="xMidYMid meet">

<g transform="translate(0.000000,253.000000) scale(0.100000,-0.100000)"
fill="#000000" stroke="none">
<path d="M0 1900 c0 -346 3 -630 8 -630 4 0 81 9 172 20 514 61 1175 61 1655
0 809 -103 1338 -236 1995 -503 139 -56 170 -71 450 -214 436 -223 953 -388
1492 -477 266 -44 340 -50 525 -36 470 33 937 126 1383 273 271 90 500 185
690 287 345 184 623 295 1170 465 67 20 440 111 555 134 293 59 609 105 890
130 436 39 1054 37 1393 -5 l52 -6 0 596 0 596 -6215 0 -6215 0 0 -630z"/>
</g>
</svg>
